Coordinates
version=1
nRows=5
nColumns=40
inDegrees=yes

Units are S.I. units (second, meters, Newtons, ...)
Angles are in degrees.

endheader
time	pelvis_tilt	pelvis_list	pelvis_rotation	pelvis_tx	pelvis_ty	pelvis_tz	hip_flexion_r	hip_adduction_r	hip_rotation_r	knee_angle_r	knee_angle_r_beta	ankle_angle_r	subtalar_angle_r	mtp_angle_r	hip_flexion_l	hip_adduction_l	hip_rotation_l	knee_angle_l	knee_angle_l_beta	ankle_angle_l	subtalar_angle_l	mtp_angle_l	lumbar_extension	lumbar_bending	lumbar_rotation	arm_flex_r	arm_add_r	arm_rot_r	elbow_flex_r	pro_sup_r	wrist_flex_r	wrist_dev_r	arm_flex_l	arm_add_l	arm_rot_l	elbow_flex_l	pro_sup_l	wrist_flex_l	wrist_dev_l
      0.86000000	     -3.14397103	     -1.29854465	     -1.59781153	     -0.19952898	      0.87064229	     -1.44557777	     -8.74418711	     -0.37913743	    -10.33851937	    -22.74641429	     -0.39699982	     11.02727139	      2.24509124	    -10.30687276	     36.43361832	      7.27734178	     17.74009001	    -25.02778736	     -0.43681729	      4.35191097	      6.60117353	     -0.35223264	     -3.53390300	      0.11865877	      6.30854734	     -4.07225026	    -12.53091140	     -6.69699961	     70.86680893	     89.95437384	      0.00000000	      0.00000000	    -18.38266314	      5.90145860	     19.10197715	     35.83923436	     89.95437384	      0.00000000	      0.00000000
      0.87000000	     -3.06087906	     -1.25393350	     -2.07507295	     -0.18558305	      0.86946398	     -1.44662406	     -9.07203087	     -0.74844080	     -9.42242035	    -23.95570968	     -0.41810601	      9.97604881	      2.29079614	    -10.01248094	     36.13691525	      7.23280711	     17.54954449	    -25.05570884	     -0.43730462	      4.57786021	      6.49774112	     -0.37340974	     -3.56711119	     -0.04937931	      6.63155004	     -4.12583384	    -12.66947966	     -6.38616471	     71.18452267	     89.95437384	      0.00000000	      0.00000000	    -18.40205726	      5.76381786	     19.19874638	     34.84869299	     89.95437384	      0.00000000	      0.00000000
      0.88000000	     -2.83928688	     -1.02046417	     -2.74710728	     -0.17078183	      0.86856799	     -1.44725978	     -9.73247023	     -1.34653905	     -8.46244770	    -24.78287130	     -0.43254270	      8.95324963	      1.99942794	     -9.67031107	     35.53360282	      7.06244610	     17.46466007	    -25.44025769	     -0.44401626	      4.80030226	      7.57323121	     -0.23627957	     -3.62233901	     -0.49438226	      7.26492030	     -4.34207734	    -12.56419215	     -6.48709396	     71.28351415	     89.95437384	      0.00000000	      0.00000000	    -18.46341268	      5.67075041	     19.57507031	     34.13311262	     89.95437384	      0.00000000	      0.00000000
      0.89000000	     -2.61712022	     -0.95761251	     -3.02694042	     -0.15579809	      0.86750284	     -1.44838059	    -10.27995287	     -1.71659472	     -7.91123354	    -25.88621587	     -0.45179970	      7.70471236	      1.64626919	     -9.24857198	     35.15524522	      6.86967132	     16.89122759	    -26.51130718	     -0.46270960	      4.65902168	      8.55492614	     -0.07657174	     -3.66870077	     -0.74039908	      7.39869572	     -4.56081509	    -12.50394061	     -6.41623164	     71.35773005	     89.95437384	      0.00000000	      0.00000000	    -18.69422714	      5.69829747	     19.54865799	     33.67200728	     89.95437384	      0.00000000	      0.00000000
      0.90000000	     -2.42915167	     -0.88612725	     -3.26399015	     -0.14062443	      0.86638090	     -1.44960131	    -10.70867238	     -2.05889215	     -7.27780529	    -27.10163460	     -0.47301276	      6.19125898	      1.08304965	     -8.74100098	     34.69782096	      6.48505805	     15.92086533	    -27.55745291	     -0.48096829	      4.02159915	     10.20132006	      0.28574360	     -3.65112743	     -1.01051437	      7.49393415	     -4.86210449	    -12.42035249	     -6.36864186	     71.36576496	     89.95437384	      0.00000000	      0.00000000	    -18.91194230	      5.72072427	     19.44042427	     33.33385776	     89.95437384	      0.00000000	      0.00000000
